<svg width="140" height="21" viewBox="0 0 140 21" fill="none" xmlns="http://www.w3.org/2000/svg">
<mask id="path-1-outside-1_1_215" maskUnits="userSpaceOnUse" x="-1" y="-1" width="142" height="23" fill="black">
<rect fill="white" x="-1" y="-1" width="142" height="23"/>
<path d="M5.84659 3.13068H8.46733C9.57528 3.13068 10.5578 3.37453 11.4148 3.86222C12.2765 4.34517 12.9512 5.02462 13.4389 5.90057C13.9313 6.77178 14.1776 7.78504 14.1776 8.94034C14.1776 10.0862 13.9313 11.0923 13.4389 11.9588C12.9512 12.8253 12.2765 13.5024 11.4148 13.9901C10.5578 14.473 9.57528 14.7145 8.46733 14.7145H5.84659C4.73864 14.7145 3.75379 14.4754 2.89205 13.9972C2.0303 13.5142 1.35322 12.8419 0.860795 11.9801C0.373106 11.1184 0.129261 10.1122 0.129261 8.96165C0.129261 7.80161 0.375474 6.78362 0.867898 5.90767C1.36032 5.03172 2.03504 4.34991 2.89205 3.86222C3.75379 3.37453 4.73864 3.13068 5.84659 3.13068ZM5.84659 5.02699C5.08902 5.02699 4.44271 5.18561 3.90767 5.50284C3.37263 5.81534 2.96307 6.26515 2.67898 6.85227C2.39489 7.43939 2.25284 8.14252 2.25284 8.96165C2.25284 9.76184 2.39489 10.4508 2.67898 11.0284C2.9678 11.6013 3.37973 12.044 3.91477 12.3565C4.44981 12.6643 5.09375 12.8182 5.84659 12.8182H8.47443C9.22727 12.8182 9.86884 12.6643 10.3991 12.3565C10.9342 12.044 11.3414 11.599 11.6207 11.0213C11.9048 10.4389 12.0469 9.74526 12.0469 8.94034C12.0469 8.13068 11.9048 7.43466 11.6207 6.85227C11.3414 6.26515 10.9342 5.81534 10.3991 5.50284C9.86884 5.18561 9.22727 5.02699 8.47443 5.02699H5.84659ZM8.24006 1.19886V16.5966H6.08807V1.19886H8.24006ZM16.7362 16V5.09091H18.8597V16H16.7362ZM17.8086 3.40767C17.4393 3.40767 17.122 3.28456 16.8569 3.03835C16.5965 2.7874 16.4663 2.48911 16.4663 2.14347C16.4663 1.79309 16.5965 1.49479 16.8569 1.24858C17.122 0.997632 17.4393 0.872159 17.8086 0.872159C18.1779 0.872159 18.4928 0.997632 18.7532 1.24858C19.0183 1.49479 19.1509 1.79309 19.1509 2.14347C19.1509 2.48911 19.0183 2.7874 18.7532 3.03835C18.4928 3.28456 18.1779 3.40767 17.8086 3.40767ZM29.1101 9.62926V11.4688H23.201V9.62926H29.1101ZM23.7976 5.09091V16H21.7166V5.09091H23.7976ZM30.5945 5.09091V16H28.5206V5.09091H30.5945ZM36.6101 16.2415C35.9188 16.2415 35.2938 16.1136 34.7351 15.858C34.1764 15.5975 33.7337 15.2211 33.407 14.7287C33.085 14.2363 32.924 13.6326 32.924 12.9176C32.924 12.3021 33.0424 11.7955 33.2791 11.3977C33.5159 11 33.8355 10.6851 34.2379 10.4531C34.6404 10.2211 35.0902 10.0459 35.5874 9.92756C36.0845 9.80919 36.5911 9.71922 37.1072 9.65767C37.7607 9.58191 38.291 9.52036 38.6982 9.47301C39.1054 9.42093 39.4013 9.33807 39.5859 9.22443C39.7706 9.1108 39.8629 8.92614 39.8629 8.67045V8.62074C39.8629 8.00047 39.6877 7.51989 39.3374 7.17898C38.9917 6.83807 38.4756 6.66761 37.7891 6.66761C37.0741 6.66761 36.5107 6.82623 36.0987 7.14347C35.6915 7.45597 35.4098 7.80398 35.2536 8.1875L33.2578 7.73295C33.4946 7.07008 33.8402 6.53504 34.2947 6.12784C34.754 5.71591 35.282 5.41761 35.8786 5.23295C36.4751 5.04356 37.1025 4.94886 37.7607 4.94886C38.1963 4.94886 38.6579 5.00095 39.1456 5.10511C39.638 5.20455 40.0973 5.3892 40.5234 5.65909C40.9543 5.92898 41.3071 6.31487 41.5817 6.81676C41.8563 7.31392 41.9936 7.96023 41.9936 8.75568V16H39.9197V14.5085H39.8345C39.6972 14.7831 39.4912 15.053 39.2166 15.3182C38.942 15.5833 38.5893 15.8035 38.1584 15.9787C37.7275 16.1539 37.2114 16.2415 36.6101 16.2415ZM37.0717 14.5369C37.6589 14.5369 38.1607 14.4209 38.5774 14.1889C38.9988 13.9569 39.3184 13.6539 39.5362 13.2798C39.7588 12.901 39.87 12.4962 39.87 12.0653V10.6591C39.7943 10.7348 39.6475 10.8059 39.4297 10.8722C39.2166 10.9337 38.9728 10.9882 38.6982 11.0355C38.4235 11.0781 38.156 11.1184 37.8956 11.1562C37.6352 11.1894 37.4174 11.2178 37.2422 11.2415C36.8303 11.2936 36.4538 11.3812 36.1129 11.5043C35.7768 11.6274 35.5069 11.8049 35.3033 12.0369C35.1044 12.2642 35.005 12.5672 35.005 12.946C35.005 13.4716 35.1991 13.8693 35.5874 14.1392C35.9756 14.4044 36.4704 14.5369 37.0717 14.5369ZM52.2156 9.62926V11.4688H46.3065V9.62926H52.2156ZM46.9031 5.09091V16H44.8221V5.09091H46.9031ZM53.6999 5.09091V16H51.6261V5.09091H53.6999ZM61.136 16.2202C60.0801 16.2202 59.171 15.9811 58.4087 15.5028C57.6512 15.0199 57.0688 14.3546 56.6616 13.5071C56.2544 12.6596 56.0508 11.6889 56.0508 10.5952C56.0508 9.48722 56.2591 8.50947 56.6758 7.66193C57.0924 6.80966 57.6796 6.14441 58.4371 5.66619C59.1947 5.18797 60.0872 4.94886 61.1147 4.94886C61.9433 4.94886 62.6819 5.10275 63.3306 5.41051C63.9793 5.71354 64.5025 6.13968 64.9002 6.68892C65.3027 7.23816 65.5418 7.87973 65.6175 8.61364H63.5508C63.4371 8.10227 63.1767 7.66193 62.7695 7.29261C62.3671 6.9233 61.8273 6.73864 61.1502 6.73864C60.5584 6.73864 60.0399 6.89489 59.5948 7.20739C59.1545 7.51515 58.8112 7.95549 58.565 8.52841C58.3188 9.09659 58.1957 9.76894 58.1957 10.5455C58.1957 11.3409 58.3164 12.0275 58.5579 12.6051C58.7994 13.1828 59.1403 13.6302 59.5806 13.9474C60.0257 14.2647 60.5489 14.4233 61.1502 14.4233C61.5527 14.4233 61.9173 14.3499 62.244 14.2031C62.5754 14.0516 62.8524 13.8362 63.0749 13.5568C63.3022 13.2775 63.4608 12.9413 63.5508 12.5483H65.6175C65.5418 13.2538 65.3121 13.8835 64.9286 14.4375C64.5451 14.9915 64.0314 15.4271 63.3874 15.7443C62.7482 16.0616 61.9978 16.2202 61.136 16.2202ZM79.4297 1.45455V16H77.2422V3.32955H70.3956V16H68.2081V1.45455H79.4297ZM81.7557 16L81.7486 14.1605H82.1392C82.4422 14.1605 82.6955 14.0966 82.8991 13.9688C83.1075 13.8362 83.2779 13.6136 83.4105 13.3011C83.5431 12.9886 83.6449 12.5578 83.7159 12.0085C83.7869 11.4545 83.839 10.7585 83.8722 9.92045L84.0639 5.09091H91.6776V16H89.5966V6.9233H86.0312L85.8608 10.6307C85.8182 11.5303 85.7259 12.3163 85.5838 12.9886C85.4465 13.661 85.2453 14.2221 84.9801 14.6719C84.715 15.117 84.3741 15.4508 83.9574 15.6733C83.5407 15.8911 83.0341 16 82.4375 16H81.7557ZM97.6843 16.2415C96.993 16.2415 96.368 16.1136 95.8093 15.858C95.2506 15.5975 94.8079 15.2211 94.4812 14.7287C94.1592 14.2363 93.9982 13.6326 93.9982 12.9176C93.9982 12.3021 94.1166 11.7955 94.3533 11.3977C94.5901 11 94.9097 10.6851 95.3121 10.4531C95.7146 10.2211 96.1644 10.0459 96.6616 9.92756C97.1587 9.80919 97.6654 9.71922 98.1815 9.65767C98.8349 9.58191 99.3652 9.52036 99.7724 9.47301C100.18 9.42093 100.475 9.33807 100.66 9.22443C100.845 9.1108 100.937 8.92614 100.937 8.67045V8.62074C100.937 8.00047 100.762 7.51989 100.412 7.17898C100.066 6.83807 99.5498 6.66761 98.8633 6.66761C98.1483 6.66761 97.5849 6.82623 97.1729 7.14347C96.7657 7.45597 96.484 7.80398 96.3278 8.1875L94.332 7.73295C94.5688 7.07008 94.9144 6.53504 95.369 6.12784C95.8282 5.71591 96.3562 5.41761 96.9528 5.23295C97.5494 5.04356 98.1767 4.94886 98.8349 4.94886C99.2705 4.94886 99.7321 5.00095 100.22 5.10511C100.712 5.20455 101.172 5.3892 101.598 5.65909C102.029 5.92898 102.381 6.31487 102.656 6.81676C102.931 7.31392 103.068 7.96023 103.068 8.75568V16H100.994V14.5085H100.909C100.771 14.7831 100.565 15.053 100.291 15.3182C100.016 15.5833 99.6635 15.8035 99.2326 15.9787C98.8017 16.1539 98.2856 16.2415 97.6843 16.2415ZM98.146 14.5369C98.7331 14.5369 99.235 14.4209 99.6516 14.1889C100.073 13.9569 100.393 13.6539 100.61 13.2798C100.833 12.901 100.944 12.4962 100.944 12.0653V10.6591C100.868 10.7348 100.722 10.8059 100.504 10.8722C100.291 10.9337 100.047 10.9882 99.7724 11.0355C99.4978 11.0781 99.2302 11.1184 98.9698 11.1562C98.7094 11.1894 98.4916 11.2178 98.3164 11.2415C97.9045 11.2936 97.5281 11.3812 97.1871 11.5043C96.851 11.6274 96.5811 11.8049 96.3775 12.0369C96.1786 12.2642 96.0792 12.5672 96.0792 12.946C96.0792 13.4716 96.2733 13.8693 96.6616 14.1392C97.0498 14.4044 97.5446 14.5369 98.146 14.5369ZM113.29 9.62926V11.4688H107.381V9.62926H113.29ZM107.977 5.09091V16H105.896V5.09091H107.977ZM114.774 5.09091V16H112.7V5.09091H114.774ZM122.317 16.2202C121.242 16.2202 120.316 15.9905 119.54 15.5312C118.768 15.0672 118.171 14.4162 117.75 13.5781C117.333 12.7353 117.125 11.7481 117.125 10.6165C117.125 9.49905 117.333 8.5142 117.75 7.66193C118.171 6.80966 118.759 6.14441 119.511 5.66619C120.269 5.18797 121.154 4.94886 122.168 4.94886C122.783 4.94886 123.38 5.05066 123.957 5.25426C124.535 5.45786 125.054 5.77746 125.513 6.21307C125.972 6.64867 126.334 7.21449 126.599 7.91051C126.865 8.6018 126.997 9.44223 126.997 10.4318V11.1847H118.325V9.59375H124.916C124.916 9.03504 124.803 8.54025 124.575 8.10938C124.348 7.67377 124.028 7.33049 123.616 7.07955C123.209 6.8286 122.731 6.70312 122.182 6.70312C121.585 6.70312 121.064 6.84991 120.619 7.14347C120.179 7.43229 119.838 7.81108 119.597 8.27983C119.36 8.74384 119.241 9.24811 119.241 9.79261V11.0355C119.241 11.7647 119.369 12.3849 119.625 12.8963C119.885 13.4077 120.248 13.7983 120.712 14.0682C121.176 14.3333 121.718 14.4659 122.338 14.4659C122.741 14.4659 123.107 14.4091 123.439 14.2955C123.77 14.1771 124.057 14.0019 124.298 13.7699C124.54 13.5379 124.724 13.2514 124.852 12.9105L126.862 13.2727C126.701 13.8646 126.412 14.383 125.996 14.8281C125.584 15.2685 125.065 15.6117 124.44 15.858C123.82 16.0994 123.112 16.2202 122.317 16.2202ZM129.353 20.0909V5.09091H131.427V6.85938H131.605C131.728 6.6321 131.905 6.36932 132.137 6.07102C132.369 5.77273 132.691 5.51231 133.103 5.28977C133.515 5.0625 134.06 4.94886 134.737 4.94886C135.618 4.94886 136.404 5.1714 137.095 5.61648C137.786 6.06155 138.328 6.70312 138.721 7.54119C139.119 8.37926 139.318 9.38778 139.318 10.5668C139.318 11.7457 139.121 12.7566 138.728 13.5994C138.335 14.4375 137.796 15.0838 137.109 15.5384C136.422 15.9882 135.639 16.2131 134.758 16.2131C134.095 16.2131 133.553 16.1018 133.132 15.8793C132.715 15.6567 132.388 15.3963 132.152 15.098C131.915 14.7997 131.733 14.5346 131.605 14.3026H131.477V20.0909H129.353ZM131.434 10.5455C131.434 11.3125 131.546 11.9848 131.768 12.5625C131.991 13.1402 132.313 13.5923 132.734 13.919C133.155 14.241 133.672 14.402 134.282 14.402C134.917 14.402 135.447 14.2339 135.873 13.8977C136.299 13.5568 136.621 13.0952 136.839 12.5128C137.062 11.9304 137.173 11.2746 137.173 10.5455C137.173 9.82576 137.064 9.17945 136.846 8.60653C136.633 8.03362 136.311 7.58144 135.88 7.25C135.454 6.91856 134.922 6.75284 134.282 6.75284C133.667 6.75284 133.146 6.91146 132.72 7.22869C132.298 7.54593 131.979 7.98864 131.761 8.55682C131.543 9.125 131.434 9.78788 131.434 10.5455Z"/>
</mask>
<path d="M5.84659 3.13068H8.46733C9.57528 3.13068 10.5578 3.37453 11.4148 3.86222C12.2765 4.34517 12.9512 5.02462 13.4389 5.90057C13.9313 6.77178 14.1776 7.78504 14.1776 8.94034C14.1776 10.0862 13.9313 11.0923 13.4389 11.9588C12.9512 12.8253 12.2765 13.5024 11.4148 13.9901C10.5578 14.473 9.57528 14.7145 8.46733 14.7145H5.84659C4.73864 14.7145 3.75379 14.4754 2.89205 13.9972C2.0303 13.5142 1.35322 12.8419 0.860795 11.9801C0.373106 11.1184 0.129261 10.1122 0.129261 8.96165C0.129261 7.80161 0.375474 6.78362 0.867898 5.90767C1.36032 5.03172 2.03504 4.34991 2.89205 3.86222C3.75379 3.37453 4.73864 3.13068 5.84659 3.13068ZM5.84659 5.02699C5.08902 5.02699 4.44271 5.18561 3.90767 5.50284C3.37263 5.81534 2.96307 6.26515 2.67898 6.85227C2.39489 7.43939 2.25284 8.14252 2.25284 8.96165C2.25284 9.76184 2.39489 10.4508 2.67898 11.0284C2.9678 11.6013 3.37973 12.044 3.91477 12.3565C4.44981 12.6643 5.09375 12.8182 5.84659 12.8182H8.47443C9.22727 12.8182 9.86884 12.6643 10.3991 12.3565C10.9342 12.044 11.3414 11.599 11.6207 11.0213C11.9048 10.4389 12.0469 9.74526 12.0469 8.94034C12.0469 8.13068 11.9048 7.43466 11.6207 6.85227C11.3414 6.26515 10.9342 5.81534 10.3991 5.50284C9.86884 5.18561 9.22727 5.02699 8.47443 5.02699H5.84659ZM8.24006 1.19886V16.5966H6.08807V1.19886H8.24006ZM16.7362 16V5.09091H18.8597V16H16.7362ZM17.8086 3.40767C17.4393 3.40767 17.122 3.28456 16.8569 3.03835C16.5965 2.7874 16.4663 2.48911 16.4663 2.14347C16.4663 1.79309 16.5965 1.49479 16.8569 1.24858C17.122 0.997632 17.4393 0.872159 17.8086 0.872159C18.1779 0.872159 18.4928 0.997632 18.7532 1.24858C19.0183 1.49479 19.1509 1.79309 19.1509 2.14347C19.1509 2.48911 19.0183 2.7874 18.7532 3.03835C18.4928 3.28456 18.1779 3.40767 17.8086 3.40767ZM29.1101 9.62926V11.4688H23.201V9.62926H29.1101ZM23.7976 5.09091V16H21.7166V5.09091H23.7976ZM30.5945 5.09091V16H28.5206V5.09091H30.5945ZM36.6101 16.2415C35.9188 16.2415 35.2938 16.1136 34.7351 15.858C34.1764 15.5975 33.7337 15.2211 33.407 14.7287C33.085 14.2363 32.924 13.6326 32.924 12.9176C32.924 12.3021 33.0424 11.7955 33.2791 11.3977C33.5159 11 33.8355 10.6851 34.2379 10.4531C34.6404 10.2211 35.0902 10.0459 35.5874 9.92756C36.0845 9.80919 36.5911 9.71922 37.1072 9.65767C37.7607 9.58191 38.291 9.52036 38.6982 9.47301C39.1054 9.42093 39.4013 9.33807 39.5859 9.22443C39.7706 9.1108 39.8629 8.92614 39.8629 8.67045V8.62074C39.8629 8.00047 39.6877 7.51989 39.3374 7.17898C38.9917 6.83807 38.4756 6.66761 37.7891 6.66761C37.0741 6.66761 36.5107 6.82623 36.0987 7.14347C35.6915 7.45597 35.4098 7.80398 35.2536 8.1875L33.2578 7.73295C33.4946 7.07008 33.8402 6.53504 34.2947 6.12784C34.754 5.71591 35.282 5.41761 35.8786 5.23295C36.4751 5.04356 37.1025 4.94886 37.7607 4.94886C38.1963 4.94886 38.6579 5.00095 39.1456 5.10511C39.638 5.20455 40.0973 5.3892 40.5234 5.65909C40.9543 5.92898 41.3071 6.31487 41.5817 6.81676C41.8563 7.31392 41.9936 7.96023 41.9936 8.75568V16H39.9197V14.5085H39.8345C39.6972 14.7831 39.4912 15.053 39.2166 15.3182C38.942 15.5833 38.5893 15.8035 38.1584 15.9787C37.7275 16.1539 37.2114 16.2415 36.6101 16.2415ZM37.0717 14.5369C37.6589 14.5369 38.1607 14.4209 38.5774 14.1889C38.9988 13.9569 39.3184 13.6539 39.5362 13.2798C39.7588 12.901 39.87 12.4962 39.87 12.0653V10.6591C39.7943 10.7348 39.6475 10.8059 39.4297 10.8722C39.2166 10.9337 38.9728 10.9882 38.6982 11.0355C38.4235 11.0781 38.156 11.1184 37.8956 11.1562C37.6352 11.1894 37.4174 11.2178 37.2422 11.2415C36.8303 11.2936 36.4538 11.3812 36.1129 11.5043C35.7768 11.6274 35.5069 11.8049 35.3033 12.0369C35.1044 12.2642 35.005 12.5672 35.005 12.946C35.005 13.4716 35.1991 13.8693 35.5874 14.1392C35.9756 14.4044 36.4704 14.5369 37.0717 14.5369ZM52.2156 9.62926V11.4688H46.3065V9.62926H52.2156ZM46.9031 5.09091V16H44.8221V5.09091H46.9031ZM53.6999 5.09091V16H51.6261V5.09091H53.6999ZM61.136 16.2202C60.0801 16.2202 59.171 15.9811 58.4087 15.5028C57.6512 15.0199 57.0688 14.3546 56.6616 13.5071C56.2544 12.6596 56.0508 11.6889 56.0508 10.5952C56.0508 9.48722 56.2591 8.50947 56.6758 7.66193C57.0924 6.80966 57.6796 6.14441 58.4371 5.66619C59.1947 5.18797 60.0872 4.94886 61.1147 4.94886C61.9433 4.94886 62.6819 5.10275 63.3306 5.41051C63.9793 5.71354 64.5025 6.13968 64.9002 6.68892C65.3027 7.23816 65.5418 7.87973 65.6175 8.61364H63.5508C63.4371 8.10227 63.1767 7.66193 62.7695 7.29261C62.3671 6.9233 61.8273 6.73864 61.1502 6.73864C60.5584 6.73864 60.0399 6.89489 59.5948 7.20739C59.1545 7.51515 58.8112 7.95549 58.565 8.52841C58.3188 9.09659 58.1957 9.76894 58.1957 10.5455C58.1957 11.3409 58.3164 12.0275 58.5579 12.6051C58.7994 13.1828 59.1403 13.6302 59.5806 13.9474C60.0257 14.2647 60.5489 14.4233 61.1502 14.4233C61.5527 14.4233 61.9173 14.3499 62.244 14.2031C62.5754 14.0516 62.8524 13.8362 63.0749 13.5568C63.3022 13.2775 63.4608 12.9413 63.5508 12.5483H65.6175C65.5418 13.2538 65.3121 13.8835 64.9286 14.4375C64.5451 14.9915 64.0314 15.4271 63.3874 15.7443C62.7482 16.0616 61.9978 16.2202 61.136 16.2202ZM79.4297 1.45455V16H77.2422V3.32955H70.3956V16H68.2081V1.45455H79.4297ZM81.7557 16L81.7486 14.1605H82.1392C82.4422 14.1605 82.6955 14.0966 82.8991 13.9688C83.1075 13.8362 83.2779 13.6136 83.4105 13.3011C83.5431 12.9886 83.6449 12.5578 83.7159 12.0085C83.7869 11.4545 83.839 10.7585 83.8722 9.92045L84.0639 5.09091H91.6776V16H89.5966V6.9233H86.0312L85.8608 10.6307C85.8182 11.5303 85.7259 12.3163 85.5838 12.9886C85.4465 13.661 85.2453 14.2221 84.9801 14.6719C84.715 15.117 84.3741 15.4508 83.9574 15.6733C83.5407 15.8911 83.0341 16 82.4375 16H81.7557ZM97.6843 16.2415C96.993 16.2415 96.368 16.1136 95.8093 15.858C95.2506 15.5975 94.8079 15.2211 94.4812 14.7287C94.1592 14.2363 93.9982 13.6326 93.9982 12.9176C93.9982 12.3021 94.1166 11.7955 94.3533 11.3977C94.5901 11 94.9097 10.6851 95.3121 10.4531C95.7146 10.2211 96.1644 10.0459 96.6616 9.92756C97.1587 9.80919 97.6654 9.71922 98.1815 9.65767C98.8349 9.58191 99.3652 9.52036 99.7724 9.47301C100.18 9.42093 100.475 9.33807 100.66 9.22443C100.845 9.1108 100.937 8.92614 100.937 8.67045V8.62074C100.937 8.00047 100.762 7.51989 100.412 7.17898C100.066 6.83807 99.5498 6.66761 98.8633 6.66761C98.1483 6.66761 97.5849 6.82623 97.1729 7.14347C96.7657 7.45597 96.484 7.80398 96.3278 8.1875L94.332 7.73295C94.5688 7.07008 94.9144 6.53504 95.369 6.12784C95.8282 5.71591 96.3562 5.41761 96.9528 5.23295C97.5494 5.04356 98.1767 4.94886 98.8349 4.94886C99.2705 4.94886 99.7321 5.00095 100.22 5.10511C100.712 5.20455 101.172 5.3892 101.598 5.65909C102.029 5.92898 102.381 6.31487 102.656 6.81676C102.931 7.31392 103.068 7.96023 103.068 8.75568V16H100.994V14.5085H100.909C100.771 14.7831 100.565 15.053 100.291 15.3182C100.016 15.5833 99.6635 15.8035 99.2326 15.9787C98.8017 16.1539 98.2856 16.2415 97.6843 16.2415ZM98.146 14.5369C98.7331 14.5369 99.235 14.4209 99.6516 14.1889C100.073 13.9569 100.393 13.6539 100.61 13.2798C100.833 12.901 100.944 12.4962 100.944 12.0653V10.6591C100.868 10.7348 100.722 10.8059 100.504 10.8722C100.291 10.9337 100.047 10.9882 99.7724 11.0355C99.4978 11.0781 99.2302 11.1184 98.9698 11.1562C98.7094 11.1894 98.4916 11.2178 98.3164 11.2415C97.9045 11.2936 97.5281 11.3812 97.1871 11.5043C96.851 11.6274 96.5811 11.8049 96.3775 12.0369C96.1786 12.2642 96.0792 12.5672 96.0792 12.946C96.0792 13.4716 96.2733 13.8693 96.6616 14.1392C97.0498 14.4044 97.5446 14.5369 98.146 14.5369ZM113.29 9.62926V11.4688H107.381V9.62926H113.29ZM107.977 5.09091V16H105.896V5.09091H107.977ZM114.774 5.09091V16H112.7V5.09091H114.774ZM122.317 16.2202C121.242 16.2202 120.316 15.9905 119.54 15.5312C118.768 15.0672 118.171 14.4162 117.75 13.5781C117.333 12.7353 117.125 11.7481 117.125 10.6165C117.125 9.49905 117.333 8.5142 117.75 7.66193C118.171 6.80966 118.759 6.14441 119.511 5.66619C120.269 5.18797 121.154 4.94886 122.168 4.94886C122.783 4.94886 123.38 5.05066 123.957 5.25426C124.535 5.45786 125.054 5.77746 125.513 6.21307C125.972 6.64867 126.334 7.21449 126.599 7.91051C126.865 8.6018 126.997 9.44223 126.997 10.4318V11.1847H118.325V9.59375H124.916C124.916 9.03504 124.803 8.54025 124.575 8.10938C124.348 7.67377 124.028 7.33049 123.616 7.07955C123.209 6.8286 122.731 6.70312 122.182 6.70312C121.585 6.70312 121.064 6.84991 120.619 7.14347C120.179 7.43229 119.838 7.81108 119.597 8.27983C119.36 8.74384 119.241 9.24811 119.241 9.79261V11.0355C119.241 11.7647 119.369 12.3849 119.625 12.8963C119.885 13.4077 120.248 13.7983 120.712 14.0682C121.176 14.3333 121.718 14.4659 122.338 14.4659C122.741 14.4659 123.107 14.4091 123.439 14.2955C123.77 14.1771 124.057 14.0019 124.298 13.7699C124.54 13.5379 124.724 13.2514 124.852 12.9105L126.862 13.2727C126.701 13.8646 126.412 14.383 125.996 14.8281C125.584 15.2685 125.065 15.6117 124.44 15.858C123.82 16.0994 123.112 16.2202 122.317 16.2202ZM129.353 20.0909V5.09091H131.427V6.85938H131.605C131.728 6.6321 131.905 6.36932 132.137 6.07102C132.369 5.77273 132.691 5.51231 133.103 5.28977C133.515 5.0625 134.06 4.94886 134.737 4.94886C135.618 4.94886 136.404 5.1714 137.095 5.61648C137.786 6.06155 138.328 6.70312 138.721 7.54119C139.119 8.37926 139.318 9.38778 139.318 10.5668C139.318 11.7457 139.121 12.7566 138.728 13.5994C138.335 14.4375 137.796 15.0838 137.109 15.5384C136.422 15.9882 135.639 16.2131 134.758 16.2131C134.095 16.2131 133.553 16.1018 133.132 15.8793C132.715 15.6567 132.388 15.3963 132.152 15.098C131.915 14.7997 131.733 14.5346 131.605 14.3026H131.477V20.0909H129.353ZM131.434 10.5455C131.434 11.3125 131.546 11.9848 131.768 12.5625C131.991 13.1402 132.313 13.5923 132.734 13.919C133.155 14.241 133.672 14.402 134.282 14.402C134.917 14.402 135.447 14.2339 135.873 13.8977C136.299 13.5568 136.621 13.0952 136.839 12.5128C137.062 11.9304 137.173 11.2746 137.173 10.5455C137.173 9.82576 137.064 9.17945 136.846 8.60653C136.633 8.03362 136.311 7.58144 135.88 7.25C135.454 6.91856 134.922 6.75284 134.282 6.75284C133.667 6.75284 133.146 6.91146 132.72 7.22869C132.298 7.54593 131.979 7.98864 131.761 8.55682C131.543 9.125 131.434 9.78788 131.434 10.5455Z" fill="#478B2F"/>
<path d="M11.4148 3.86222L10.9202 4.73136L10.9259 4.73456L11.4148 3.86222ZM13.4389 5.90057L12.5652 6.38702L12.5684 6.39262L13.4389 5.90057ZM13.4389 11.9588L12.5695 11.4647L12.5675 11.4683L13.4389 11.9588ZM11.4148 13.9901L11.9057 14.8612L11.9073 14.8604L11.4148 13.9901ZM2.89205 13.9972L2.40315 14.8695L2.40681 14.8715L2.89205 13.9972ZM0.860795 11.9801L-0.00950754 12.4726L-0.00744766 12.4763L0.860795 11.9801ZM0.867898 5.90767L-0.00380349 5.41763H-0.00380355L0.867898 5.90767ZM2.89205 3.86222L2.39951 2.99192L2.39746 2.99309L2.89205 3.86222ZM3.90767 5.50284L4.41203 6.36636L4.41768 6.36301L3.90767 5.50284ZM2.67898 6.85227L3.57914 7.28783L2.67898 6.85227ZM2.67898 11.0284L1.78158 11.4698L1.78603 11.4786L2.67898 11.0284ZM3.91477 12.3565L3.41042 13.2201L3.41616 13.2234L3.91477 12.3565ZM10.3991 12.3565L10.9011 13.2214L10.9035 13.22L10.3991 12.3565ZM11.6207 11.0213L10.722 10.5829L10.7205 10.5859L11.6207 11.0213ZM11.6207 6.85227L10.7177 7.28194L10.722 7.2907L11.6207 6.85227ZM10.3991 5.50284L9.88575 6.36106L9.8948 6.36634L10.3991 5.50284ZM8.24006 1.19886H9.24006V0.198864H8.24006V1.19886ZM8.24006 16.5966V17.5966H9.24006V16.5966H8.24006ZM6.08807 16.5966H5.08807V17.5966H6.08807V16.5966ZM6.08807 1.19886V0.198864H5.08807V1.19886H6.08807ZM5.84659 4.13068H8.46733V2.13068H5.84659V4.13068ZM8.46733 4.13068C9.42372 4.13068 10.2318 4.33963 10.9202 4.73134L11.9094 2.99309C10.8837 2.40942 9.72684 2.13068 8.46733 2.13068V4.13068ZM10.9259 4.73456C11.6236 5.12558 12.1662 5.6703 12.5652 6.38701L14.3126 5.41412C13.7363 4.37894 12.9295 3.56476 11.9037 2.98987L10.9259 4.73456ZM12.5684 6.39262C12.9636 7.0919 13.1776 7.93055 13.1776 8.94034H15.1776C15.1776 7.63953 14.8991 6.45166 14.3095 5.40851L12.5684 6.39262ZM13.1776 8.94034C13.1776 9.93921 12.9642 10.7701 12.5695 11.4647L14.3083 12.4529C14.8984 11.4145 15.1776 10.2331 15.1776 8.94034H13.1776ZM12.5675 11.4683C12.1687 12.1767 11.6247 12.7222 10.9222 13.1198L11.9073 14.8604C12.9283 14.2825 13.7337 13.4738 14.3104 12.4493L12.5675 11.4683ZM10.9238 13.1189C10.2348 13.5071 9.4254 13.7145 8.46733 13.7145V15.7145C9.72517 15.7145 10.8807 15.4389 11.9057 14.8612L10.9238 13.1189ZM8.46733 13.7145H5.84659V15.7145H8.46733V13.7145ZM5.84659 13.7145C4.88697 13.7145 4.07287 13.5088 3.37728 13.1228L2.40681 14.8715C3.43471 15.442 4.59031 15.7145 5.84659 15.7145V13.7145ZM3.38094 13.1248C2.67821 12.731 2.13192 12.189 1.72904 11.484L-0.00744766 12.4763C0.574519 13.4947 1.38239 14.2974 2.40315 14.8695L3.38094 13.1248ZM1.73109 11.4876C1.34132 10.7989 1.12926 9.96782 1.12926 8.96165H-0.870739C-0.870739 10.2566 -0.595105 11.4379 -0.00950003 12.4726L1.73109 11.4876ZM1.12926 8.96165C1.12926 7.94647 1.34351 7.10229 1.7396 6.39771L-0.00380355 5.41763C-0.59256 6.46494 -0.870739 7.65674 -0.870739 8.96165H1.12926ZM1.7396 6.39771C2.14485 5.67684 2.69055 5.12746 3.38663 4.73134L2.39746 2.99309C1.37953 3.57235 0.575798 4.38661 -0.00380349 5.41763L1.7396 6.39771ZM3.38458 4.73251C4.07885 4.3396 4.8903 4.13068 5.84659 4.13068V2.13068C4.58697 2.13068 3.42873 2.40945 2.39952 2.99192L3.38458 4.73251ZM5.84659 4.02699C4.94861 4.02699 4.11753 4.21585 3.39766 4.64267L4.41768 6.36301C4.76789 6.15536 5.22942 6.02699 5.84659 6.02699V4.02699ZM3.40332 4.63934C2.68749 5.05744 2.14461 5.66073 1.77882 6.41671L3.57914 7.28783C3.78152 6.86957 4.05777 6.57324 4.41202 6.36634L3.40332 4.63934ZM1.77882 6.41671C1.41441 7.16982 1.25284 8.02923 1.25284 8.96165H3.25284C3.25284 8.25581 3.37536 7.70897 3.57914 7.28783L1.77882 6.41671ZM1.25284 8.96165C1.25284 9.8785 1.41561 10.7255 1.78163 11.4697L3.57633 10.5871C3.37417 10.176 3.25284 9.64517 3.25284 8.96165H1.25284ZM1.78603 11.4786C2.15852 12.2174 2.70253 12.8066 3.41043 13.22L4.41912 11.493C4.05694 11.2815 3.77709 10.9852 3.57192 10.5782L1.78603 11.4786ZM3.41616 13.2234C4.13293 13.6357 4.95703 13.8182 5.84659 13.8182V11.8182C5.23047 11.8182 4.76669 11.6929 4.41339 11.4897L3.41616 13.2234ZM5.84659 13.8182H8.47443V11.8182H5.84659V13.8182ZM8.47443 13.8182C9.36364 13.8182 10.1871 13.6358 10.9011 13.2214L9.8972 11.4916C9.55056 11.6928 9.09091 11.8182 8.47443 11.8182V13.8182ZM10.9035 13.22C11.6165 12.8036 12.1584 12.2065 12.521 11.4567L10.7205 10.5859C10.5244 10.9915 10.2519 11.2845 9.8948 11.493L10.9035 13.22ZM12.5195 11.4597C12.8844 10.7118 13.0469 9.86124 13.0469 8.94034H11.0469C11.0469 9.62929 10.9253 10.1661 10.722 10.5829L12.5195 11.4597ZM13.0469 8.94034C13.0469 8.01572 12.8847 7.16253 12.5195 6.41385L10.722 7.2907C10.9249 7.70679 11.0469 8.24564 11.0469 8.94034H13.0469ZM12.5237 6.42262C12.1626 5.6636 11.6208 5.0583 10.9035 4.63934L9.8948 6.36634C10.2476 6.57238 10.5202 6.86671 10.7177 7.28192L12.5237 6.42262ZM10.9125 4.64467C10.1964 4.21627 9.36863 4.02699 8.47443 4.02699V6.02699C9.08592 6.02699 9.54131 6.15494 9.88578 6.36101L10.9125 4.64467ZM8.47443 4.02699H5.84659V6.02699H8.47443V4.02699ZM7.24006 1.19886V16.5966H9.24006V1.19886H7.24006ZM8.24006 15.5966H6.08807V17.5966H8.24006V15.5966ZM7.08807 16.5966V1.19886H5.08807V16.5966H7.08807ZM6.08807 2.19886H8.24006V0.198864H6.08807V2.19886ZM16.7362 16H15.7362V17H16.7362V16ZM16.7362 5.09091V4.09091H15.7362V5.09091H16.7362ZM18.8597 5.09091H19.8597V4.09091H18.8597V5.09091ZM18.8597 16V17H19.8597V16H18.8597ZM16.8569 3.03835L16.163 3.75843L16.1697 3.76485L16.1764 3.77114L16.8569 3.03835ZM16.8569 1.24858L17.5439 1.97522L17.5443 1.97487L16.8569 1.24858ZM18.7532 1.24858L18.0593 1.96866L18.066 1.97508L18.0727 1.98137L18.7532 1.24858ZM18.7532 3.03835L19.4402 3.765L19.4406 3.76464L18.7532 3.03835ZM17.7362 16V5.09091H15.7362V16H17.7362ZM16.7362 6.09091H18.8597V4.09091H16.7362V6.09091ZM17.8597 5.09091V16H19.8597V5.09091H17.8597ZM18.8597 15H16.7362V17H18.8597V15ZM17.8086 2.40767C17.6859 2.40767 17.6133 2.37612 17.5373 2.30556L16.1764 3.77114C16.6308 4.19301 17.1926 4.40767 17.8086 4.40767V2.40767ZM17.5508 2.31827C17.4758 2.24603 17.4663 2.20369 17.4663 2.14347H15.4663C15.4663 2.77453 15.7171 3.32877 16.163 3.75843L17.5508 2.31827ZM17.4663 2.14347C17.4663 2.07505 17.4781 2.03743 17.5439 1.97522L16.1699 0.521933C15.7148 0.952156 15.4663 1.51112 15.4663 2.14347H17.4663ZM17.5443 1.97487C17.6213 1.90195 17.6917 1.87216 17.8086 1.87216V-0.127841C17.1869 -0.127841 16.6228 0.0933151 16.1695 0.522285L17.5443 1.97487ZM17.8086 1.87216C17.9252 1.87216 17.9896 1.90149 18.0593 1.96866L19.4471 0.528501C18.996 0.093771 18.4306 -0.127841 17.8086 -0.127841V1.87216ZM18.0727 1.98137C18.1417 2.04537 18.1509 2.08128 18.1509 2.14347H20.1509C20.1509 1.5049 19.895 0.944211 19.4336 0.515786L18.0727 1.98137ZM18.1509 2.14347C18.1509 2.1975 18.144 2.23808 18.0658 2.31206L19.4406 3.76464C19.8927 3.33673 20.1509 2.78072 20.1509 2.14347H18.1509ZM18.0662 2.31171C17.9976 2.37652 17.931 2.40767 17.8086 2.40767V4.40767C18.4248 4.40767 18.9879 4.1926 19.4402 3.765L18.0662 2.31171ZM29.1101 9.62926H30.1101V8.62926H29.1101V9.62926ZM29.1101 11.4688V12.4688H30.1101V11.4688H29.1101ZM23.201 11.4688H22.201V12.4688H23.201V11.4688ZM23.201 9.62926V8.62926H22.201V9.62926H23.201ZM23.7976 5.09091H24.7976V4.09091H23.7976V5.09091ZM23.7976 16V17H24.7976V16H23.7976ZM21.7166 16H20.7166V17H21.7166V16ZM21.7166 5.09091V4.09091H20.7166V5.09091H21.7166ZM30.5945 5.09091H31.5945V4.09091H30.5945V5.09091ZM30.5945 16V17H31.5945V16H30.5945ZM28.5206 16H27.5206V17H28.5206V16ZM28.5206 5.09091V4.09091H27.5206V5.09091H28.5206ZM28.1101 9.62926V11.4688H30.1101V9.62926H28.1101ZM29.1101 10.4688H23.201V12.4688H29.1101V10.4688ZM24.201 11.4688V9.62926H22.201V11.4688H24.201ZM23.201 10.6293H29.1101V8.62926H23.201V10.6293ZM22.7976 5.09091V16H24.7976V5.09091H22.7976ZM23.7976 15H21.7166V17H23.7976V15ZM22.7166 16V5.09091H20.7166V16H22.7166ZM21.7166 6.09091H23.7976V4.09091H21.7166V6.09091ZM29.5945 5.09091V16H31.5945V5.09091H29.5945ZM30.5945 15H28.5206V17H30.5945V15ZM29.5206 16V5.09091H27.5206V16H29.5206ZM28.5206 6.09091H30.5945V4.09091H28.5206V6.09091ZM34.7351 15.858L34.3126 16.7644L34.319 16.7673L34.7351 15.858ZM33.407 14.7287L32.57 15.276L32.5737 15.2815L33.407 14.7287ZM33.2791 11.3977L34.1384 11.9092L33.2791 11.3977ZM34.2379 10.4531L34.7374 11.3195L34.2379 10.4531ZM37.1072 9.65767L36.9921 8.66432L36.9888 8.66471L37.1072 9.65767ZM38.6982 9.47301L38.8137 10.4664L38.825 10.4649L38.6982 9.47301ZM39.5859 9.22443L40.11 10.0761L39.5859 9.22443ZM39.3374 7.17898L38.6351 7.89096L38.64 7.8957L39.3374 7.17898ZM36.0987 7.14347L36.7075 7.93678L36.7089 7.93575L36.0987 7.14347ZM35.2536 8.1875L35.0315 9.16253L35.8593 9.35108L36.1796 8.5648L35.2536 8.1875ZM33.2578 7.73295L32.3161 7.39662L31.9371 8.45776L33.0357 8.70798L33.2578 7.73295ZM34.2947 6.12784L34.962 6.87268L34.9624 6.87228L34.2947 6.12784ZM35.8786 5.23295L36.1742 6.18826L36.1811 6.18608L35.8786 5.23295ZM39.1456 5.10511L38.9367 6.08312L38.9477 6.08533L39.1456 5.10511ZM40.5234 5.65909L39.9884 6.50392L39.9926 6.50656L40.5234 5.65909ZM41.5817 6.81676L40.7044 7.29678L40.7063 7.30028L41.5817 6.81676ZM41.9936 16V17H42.9936V16H41.9936ZM39.9197 16H38.9197V17H39.9197V16ZM39.9197 14.5085H40.9197V13.5085H39.9197V14.5085ZM39.8345 14.5085V13.5085H39.2165L38.9401 14.0613L39.8345 14.5085ZM39.2166 15.3182L38.522 14.5988L39.2166 15.3182ZM38.1584 15.9787L37.7817 15.0523L38.1584 15.9787ZM38.5774 14.1889L38.0951 13.3129L38.0909 13.3152L38.5774 14.1889ZM39.5362 13.2798L38.674 12.7733L38.672 12.7766L39.5362 13.2798ZM39.87 10.6591H40.87V8.24488L39.1629 9.95198L39.87 10.6591ZM39.4297 10.8722L39.7072 11.8329L39.7141 11.8309L39.7208 11.8288L39.4297 10.8722ZM38.6982 11.0355L38.8515 12.0237L38.8598 12.0224L38.8681 12.021L38.6982 11.0355ZM37.8956 11.1562L38.0219 12.1482L38.0307 12.1471L38.0395 12.1458L37.8956 11.1562ZM37.2422 11.2415L37.3676 12.2336L37.3761 12.2325L37.2422 11.2415ZM36.1129 11.5043L35.7733 10.5637L35.7691 10.5652L36.1129 11.5043ZM35.3033 12.0369L34.5516 11.3773L34.5507 11.3784L35.3033 12.0369ZM35.5874 14.1392L35.0166 14.9603L35.0234 14.965L35.5874 14.1392ZM36.6101 15.2415C36.0444 15.2415 35.5639 15.1375 35.1512 14.9486L34.319 16.7673C35.0237 17.0898 35.7932 17.2415 36.6101 17.2415V15.2415ZM35.1576 14.9516C34.7582 14.7654 34.4607 14.5081 34.2402 14.1758L32.5737 15.2815C33.0067 15.9342 33.5946 16.4297 34.3126 16.7643L35.1576 14.9516ZM34.2439 14.1814C34.0493 13.8838 33.924 13.4804 33.924 12.9176H31.924C31.924 13.7848 32.1207 14.5888 32.57 15.2759L34.2439 14.1814ZM33.924 12.9176C33.924 12.4245 34.0193 12.1092 34.1384 11.9092L32.4198 10.8862C32.0654 11.4817 31.924 12.1797 31.924 12.9176H33.924ZM34.1384 11.9092C34.2872 11.6592 34.4827 11.4663 34.7374 11.3195L33.7385 9.58677C33.1882 9.90398 32.7445 10.3408 32.4198 10.8862L34.1384 11.9092ZM34.7374 11.3195C35.0482 11.1403 35.4064 10.9986 35.819 10.9004L35.3557 8.95475C34.774 9.09327 34.2325 9.30197 33.7385 9.58677L34.7374 11.3195ZM35.819 10.9004C36.2782 10.791 36.747 10.7077 37.2257 10.6506L36.9888 8.66471C36.4353 8.73073 35.8908 8.82735 35.3557 8.95475L35.819 10.9004ZM37.2224 10.651C37.8759 10.5753 38.4063 10.5137 38.8137 10.4663L38.5827 8.4797C38.1756 8.52703 37.6454 8.58857 36.9921 8.66432L37.2224 10.651ZM38.825 10.4649C39.2694 10.4081 39.7392 10.3043 40.11 10.0761L39.0618 8.37277C39.0741 8.36523 39.0483 8.38295 38.9559 8.40884C38.8673 8.43365 38.7416 8.45931 38.5713 8.48109L38.825 10.4649ZM40.11 10.0761C40.6477 9.74522 40.8629 9.2004 40.8629 8.67045H38.8629C38.8629 8.67932 38.8614 8.62918 38.8993 8.5535C38.9407 8.47058 39.0038 8.40849 39.0618 8.37277L40.11 10.0761ZM40.8629 8.67045V8.62074H38.8629V8.67045H40.8629ZM40.8629 8.62074C40.8629 7.8071 40.6273 7.03887 40.0347 6.46225L38.64 7.8957C38.7481 8.00091 38.8629 8.19384 38.8629 8.62074H40.8629ZM40.0396 6.46701C39.4409 5.87659 38.6286 5.66761 37.7891 5.66761V7.66761C38.3226 7.66761 38.5425 7.79955 38.6351 7.89094L40.0396 6.46701ZM37.7891 5.66761C36.935 5.66761 36.1306 5.85677 35.4886 6.35118L36.7089 7.93575C36.8907 7.7957 37.2132 7.66761 37.7891 7.66761V5.66761ZM35.4899 6.35016C34.9753 6.74505 34.565 7.22723 34.3275 7.8102L36.1796 8.5648C36.2546 8.38072 36.4077 8.16688 36.7075 7.93678L35.4899 6.35016ZM35.4756 7.21247L33.4799 6.75792L33.0357 8.70798L35.0315 9.16253L35.4756 7.21247ZM34.1996 8.06929C34.3889 7.53906 34.6494 7.15269 34.962 6.87268L33.6275 5.38301C33.031 5.91738 32.6002 6.60109 32.3161 7.39662L34.1996 8.06929ZM34.9624 6.87228C35.313 6.55784 35.7137 6.3308 36.1742 6.18824L35.5829 4.27767C34.8503 4.50443 34.195 4.87398 33.6271 5.3834L34.9624 6.87228ZM36.1811 6.18608C36.6749 6.02932 37.1999 5.94886 37.7607 5.94886V3.94886C37.0051 3.94886 36.2754 4.0578 35.576 4.27983L36.1811 6.18608ZM37.7607 5.94886C38.1168 5.94886 38.508 5.99149 38.9367 6.08305L39.3545 4.12717C38.8078 4.01041 38.2757 3.94886 37.7607 3.94886V5.94886ZM38.9477 6.08533C39.3199 6.16049 39.665 6.29909 39.9884 6.50391L41.0585 4.81427C40.5296 4.47932 39.9561 4.2486 39.3435 4.1249L38.9477 6.08533ZM39.9926 6.50656C40.261 6.6747 40.5015 6.92585 40.7044 7.29677L42.4589 6.33675C42.1127 5.70389 41.6476 5.18325 41.0543 4.81162L39.9926 6.50656ZM40.7063 7.30028C40.873 7.60192 40.9936 8.06523 40.9936 8.75568H42.9936C42.9936 7.85522 42.8396 7.02592 42.457 6.33324L40.7063 7.30028ZM40.9936 8.75568V16H42.9936V8.75568H40.9936ZM41.9936 15H39.9197V17H41.9936V15ZM40.9197 16V14.5085H38.9197V16H40.9197ZM39.9197 13.5085H39.8345V15.5085H39.9197V13.5085ZM38.9401 14.0613C38.8641 14.2133 38.7341 14.394 38.522 14.5988L39.9112 16.0376C40.2483 15.7121 40.5303 15.353 40.7289 14.9557L38.9401 14.0613ZM38.522 14.5988C38.3569 14.7582 38.1195 14.915 37.7817 15.0523L38.535 16.905C39.059 16.692 39.5271 16.4084 39.9112 16.0376L38.522 14.5988ZM37.7817 15.0523C37.4999 15.1669 37.1184 15.2415 36.6101 15.2415V17.2415C37.3045 17.2415 37.9551 17.1408 38.535 16.905L37.7817 15.0523ZM37.0717 15.5369C37.7902 15.5369 38.4678 15.3945 39.0639 15.0626L38.0909 13.3152C37.8537 13.4473 37.5275 13.5369 37.0717 13.5369V15.5369ZM39.0597 15.0649C39.6217 14.7555 40.0815 14.3306 40.4004 13.783L38.672 12.7766C38.5553 12.9771 38.376 13.1583 38.0951 13.3129L39.0597 15.0649ZM40.3984 13.7864C40.7093 13.2572 40.87 12.678 40.87 12.0653H38.87C38.87 12.3145 38.8082 12.5449 38.674 12.7733L40.3984 13.7864ZM40.87 12.0653V10.6591H38.87V12.0653H40.87ZM39.1629 9.95198C39.1827 9.93216 39.2006 9.91681 39.2148 9.90544C39.2291 9.89406 39.2409 9.88578 39.2493 9.88025C39.2654 9.86963 39.2729 9.86642 39.2676 9.86902C39.2626 9.87141 39.2499 9.87722 39.2273 9.88573C39.2049 9.89414 39.1757 9.90418 39.1385 9.91548L39.7208 11.8288C39.9567 11.7571 40.3139 11.6295 40.5771 11.3662L39.1629 9.95198ZM39.1521 9.91144C38.9821 9.96058 38.7753 10.0075 38.5282 10.0501L38.8681 12.021C39.1702 11.9689 39.4512 11.9068 39.7072 11.8329L39.1521 9.91144ZM38.5448 10.0473C38.2732 10.0895 38.0088 10.1293 37.7517 10.1667L38.0395 12.1458C38.3033 12.1075 38.5739 12.0668 38.8515 12.0237L38.5448 10.0473ZM37.7693 10.1643C37.5075 10.1976 37.2869 10.2263 37.1083 10.2505L37.3761 12.2325C37.5478 12.2093 37.7629 12.1812 38.0219 12.1482L37.7693 10.1643ZM37.1167 10.2494C36.6421 10.3094 36.1926 10.4123 35.7733 10.5637L36.4526 12.4448C36.715 12.35 37.0184 12.2777 37.3676 12.2336L37.1167 10.2494ZM35.7691 10.5652C35.301 10.7366 34.8821 11.0007 34.5516 11.3773L36.0549 12.6965C36.1316 12.6091 36.2525 12.5181 36.4568 12.4433L35.7691 10.5652ZM34.5507 11.3784C34.1548 11.8308 34.005 12.3887 34.005 12.946H36.005C36.005 12.7457 36.054 12.6976 36.0558 12.6954L34.5507 11.3784ZM34.005 12.946C34.005 13.7565 34.3262 14.4804 35.0166 14.9603L36.1581 13.3181C36.072 13.2582 36.005 13.1867 36.005 12.946H34.005ZM35.0234 14.965C35.6187 15.3716 36.3251 15.5369 37.0717 15.5369V13.5369C36.6157 13.5369 36.3325 13.4371 36.1513 13.3134L35.0234 14.965ZM52.2156 9.62926H53.2156V8.62926H52.2156V9.62926ZM52.2156 11.4688V12.4688H53.2156V11.4688H52.2156ZM46.3065 11.4688H45.3065V12.4688H46.3065V11.4688ZM46.3065 9.62926V8.62926H45.3065V9.62926H46.3065ZM46.9031 5.09091H47.9031V4.09091H46.9031V5.09091ZM46.9031 16V17H47.9031V16H46.9031ZM44.8221 16H43.8221V17H44.8221V16ZM44.8221 5.09091V4.09091H43.8221V5.09091H44.8221ZM53.6999 5.09091H54.6999V4.09091H53.6999V5.09091ZM53.6999 16V17H54.6999V16H53.6999ZM51.6261 16H50.6261V17H51.6261V16ZM51.6261 5.09091V4.09091H50.6261V5.09091H51.6261ZM51.2156 9.62926V11.4688H53.2156V9.62926H51.2156ZM52.2156 10.4688H46.3065V12.4688H52.2156V10.4688ZM47.3065 11.4688V9.62926H45.3065V11.4688H47.3065ZM46.3065 10.6293H52.2156V8.62926H46.3065V10.6293ZM45.9031 5.09091V16H47.9031V5.09091H45.9031ZM46.9031 15H44.8221V17H46.9031V15ZM45.8221 16V5.09091H43.8221V16H45.8221ZM44.8221 6.09091H46.9031V4.09091H44.8221V6.09091ZM52.6999 5.09091V16H54.6999V5.09091H52.6999ZM53.6999 15H51.6261V17H53.6999V15ZM52.6261 16V5.09091H50.6261V16H52.6261ZM51.6261 6.09091H53.6999V4.09091H51.6261V6.09091ZM58.4087 15.5028L57.8712 16.3461L57.8773 16.35L58.4087 15.5028ZM56.6758 7.66193L57.5732 8.10312L57.5742 8.10114L56.6758 7.66193ZM58.4371 5.66619L57.9034 4.82058V4.82058L58.4371 5.66619ZM63.3306 5.41051L62.902 6.314L62.9074 6.31653L63.3306 5.41051ZM64.9002 6.68892L64.0903 7.27544L64.0936 7.27998L64.9002 6.68892ZM65.6175 8.61364V9.61364H66.7261L66.6123 8.51096L65.6175 8.61364ZM63.5508 8.61364L62.5746 8.83057L62.7486 9.61364H63.5508V8.61364ZM62.7695 7.29261L62.0934 8.02942L62.0977 8.03333L62.7695 7.29261ZM59.5948 7.20739L60.1677 8.02703L60.1694 8.0258L59.5948 7.20739ZM58.565 8.52841L59.4825 8.92602L59.4837 8.92324L58.565 8.52841ZM58.5579 12.6051L59.4805 12.2194L58.5579 12.6051ZM59.5806 13.9474L58.9961 14.7588L59.0002 14.7618L59.5806 13.9474ZM62.244 14.2031L62.6538 15.1153L62.6597 15.1126L62.244 14.2031ZM63.0749 13.5568L62.2992 12.9257L62.2928 12.9337L63.0749 13.5568ZM63.5508 12.5483V11.5483H62.7538L62.576 12.3252L63.5508 12.5483ZM65.6175 12.5483L66.6118 12.6551L66.7307 11.5483H65.6175V12.5483ZM64.9286 14.4375L65.7508 15.0067L64.9286 14.4375ZM63.3874 15.7443L62.9455 14.8473L62.9429 14.8486L63.3874 15.7443ZM61.136 15.2202C60.235 15.2202 59.5173 15.0178 58.9402 14.6557L57.8773 16.35C58.8248 16.9443 59.9252 17.2202 61.136 17.2202V15.2202ZM58.9463 14.6596C58.3533 14.2816 57.8934 13.7618 57.5629 13.074L55.7602 13.9402C56.2442 14.9474 56.949 15.7582 57.8712 16.3461L58.9463 14.6596ZM57.5629 13.074C57.2305 12.382 57.0508 11.5634 57.0508 10.5952H55.0508C55.0508 11.8145 55.2783 12.9371 55.7602 13.9402L57.5629 13.074ZM57.0508 10.5952C57.0508 9.61382 57.2348 8.79153 57.5732 8.10312L55.7784 7.22074C55.2835 8.22741 55.0508 9.36061 55.0508 10.5952H57.0508ZM57.5742 8.10114C57.9144 7.40528 58.3796 6.88508 58.9709 6.51181L57.9034 4.82058C56.9795 5.40375 56.2705 6.21404 55.7774 7.22272L57.5742 8.10114ZM58.9709 6.51181C59.5463 6.1486 60.2478 5.94886 61.1147 5.94886V3.94886C59.9267 3.94886 58.8431 4.22735 57.9034 4.82058L58.9709 6.51181ZM61.1147 5.94886C61.8178 5.94886 62.4064 6.07887 62.902 6.31398L63.7593 4.50704C62.9575 4.12662 62.0688 3.94886 61.1147 3.94886V5.94886ZM62.9074 6.31653C63.411 6.55179 63.7978 6.87155 64.0903 7.27543L65.7102 6.10241C65.2072 5.4078 64.5476 4.87529 63.7539 4.5045L62.9074 6.31653ZM64.0936 7.27998C64.3824 7.67414 64.5637 8.14378 64.6228 8.71632L66.6123 8.51096C66.5198 7.61569 66.2229 6.80218 65.7068 6.09786L64.0936 7.27998ZM65.6175 7.61364H63.5508V9.61364H65.6175V7.61364ZM64.527 8.39671C64.3662 7.67313 63.9937 7.05285 63.4413 6.55189L62.0977 8.03333C62.3598 8.27102 62.5081 8.53141 62.5746 8.83057L64.527 8.39671ZM63.4456 6.55582C62.8172 5.97912 62.015 5.73864 61.1502 5.73864V7.73864C61.6396 7.73864 61.9169 7.86747 62.0934 8.02941L63.4456 6.55582ZM61.1502 5.73864C60.3718 5.73864 59.6485 5.94779 59.0202 6.38897L60.1694 8.0258C60.4312 7.84199 60.7449 7.73864 61.1502 7.73864V5.73864ZM59.0219 6.38774C58.4058 6.81835 57.9539 7.4176 57.6462 8.13357L59.4837 8.92324C59.6685 8.49339 59.9031 8.21195 60.1677 8.02703L59.0219 6.38774ZM57.6474 8.1308C57.3349 8.85203 57.1957 9.66576 57.1957 10.5455H59.1957C59.1957 9.87212 59.3027 9.34115 59.4825 8.92602L57.6474 8.1308ZM57.1957 10.5455C57.1957 11.4389 57.3309 12.2628 57.6353 12.9908L59.4805 12.2194C59.3019 11.7921 59.1957 11.2429 59.1957 10.5455H57.1957ZM57.6353 12.9908C57.9368 13.7122 58.3841 14.3179 58.9961 14.7588L60.1651 13.1361C59.8965 12.9425 59.6619 12.6534 59.4805 12.2194L57.6353 12.9908ZM59.0002 14.7618C59.6317 15.2119 60.3627 15.4233 61.1502 15.4233V13.4233C60.7351 13.4233 60.4197 13.3175 60.161 13.1331L59.0002 14.7618ZM61.1502 15.4233C61.6764 15.4233 62.1831 15.3267 62.6538 15.1153L61.8341 13.291C61.6514 13.3731 61.4289 13.4233 61.1502 13.4233V15.4233ZM62.6597 15.1126C63.1311 14.8971 63.5346 14.5848 63.8571 14.1799L62.2928 12.9337C62.1702 13.0876 62.0197 13.2061 61.8282 13.2936L62.6597 15.1126ZM63.8506 14.1879C64.1857 13.7761 64.4055 13.2958 64.5256 12.7714L62.576 12.3252C62.5161 12.5867 62.4187 12.7789 62.2992 12.9257L63.8506 14.1879ZM63.5508 13.5483H65.6175V11.5483H63.5508V13.5483ZM64.6233 12.4415C64.5644 12.99 64.3898 13.459 64.1064 13.8683L65.7508 15.0067C66.2345 14.308 66.5192 13.5175 66.6118 12.6551L64.6233 12.4415ZM64.1064 13.8683C63.8261 14.2733 63.4472 14.6001 62.9455 14.8473L63.8294 16.6414C64.6156 16.254 65.2641 15.7097 65.7508 15.0067L64.1064 13.8683ZM62.9429 14.8486C62.4676 15.0844 61.8751 15.2202 61.136 15.2202V17.2202C62.1204 17.2202 63.0288 17.0387 63.832 16.6401L62.9429 14.8486ZM79.4297 1.45455H80.4297V0.454545H79.4297V1.45455ZM79.4297 16V17H80.4297V16H79.4297ZM77.2422 16H76.2422V17H77.2422V16ZM77.2422 3.32955H78.2422V2.32955H77.2422V3.32955ZM70.3956 3.32955V2.32955H69.3956V3.32955H70.3956ZM70.3956 16V17H71.3956V16H70.3956ZM68.2081 16H67.2081V17H68.2081V16ZM68.2081 1.45455V0.454545H67.2081V1.45455H68.2081ZM78.4297 1.45455V16H80.4297V1.45455H78.4297ZM79.4297 15H77.2422V17H79.4297V15ZM78.2422 16V3.32955H76.2422V16H78.2422ZM77.2422 2.32955H70.3956V4.32955H77.2422V2.32955ZM69.3956 3.32955V16H71.3956V3.32955H69.3956ZM70.3956 15H68.2081V17H70.3956V15ZM69.2081 16V1.45455H67.2081V16H69.2081ZM68.2081 2.45455H79.4297V0.454545H68.2081V2.45455ZM81.7557 16L80.7557 16.0039L80.7595 17H81.7557V16ZM81.7486 14.1605V13.1605H80.7447L80.7486 14.1644L81.7486 14.1605ZM82.8991 13.9688L83.4309 14.8157L83.436 14.8124L82.8991 13.9688ZM83.7159 12.0085L84.7076 12.1368L84.7078 12.1357L83.7159 12.0085ZM83.8722 9.92045L82.8729 9.88078L82.8729 9.88094L83.8722 9.92045ZM84.0639 5.09091V4.09091H83.1028L83.0647 5.05123L84.0639 5.09091ZM91.6776 5.09091H92.6776V4.09091H91.6776V5.09091ZM91.6776 16V17H92.6776V16H91.6776ZM89.5966 16H88.5966V17H89.5966V16ZM89.5966 6.9233H90.5966V5.9233H89.5966V6.9233ZM86.0312 6.9233V5.9233H85.0762L85.0323 6.87737L86.0312 6.9233ZM85.8608 10.6307L86.8597 10.678L86.8597 10.6766L85.8608 10.6307ZM85.5838 12.9886L84.6054 12.7819L84.604 12.7885L85.5838 12.9886ZM84.9801 14.6719L85.8392 15.1837L85.8416 15.1797L84.9801 14.6719ZM83.9574 15.6733L84.4207 16.5596L84.4285 16.5554L83.9574 15.6733ZM82.7557 15.9961L82.7486 14.1567L80.7486 14.1644L80.7557 16.0039L82.7557 15.9961ZM81.7486 15.1605H82.1392V13.1605H81.7486V15.1605ZM82.1392 15.1605C82.5817 15.1605 83.0313 15.0666 83.4309 14.8156L82.3674 13.1219C82.3598 13.1266 82.3028 13.1605 82.1392 13.1605V15.1605ZM83.436 14.8124C83.8683 14.5373 84.1483 14.1226 84.3311 13.6917L82.4899 12.9106C82.4076 13.1046 82.3466 13.1351 82.3623 13.1251L83.436 14.8124ZM84.3311 13.6917C84.5144 13.2595 84.6313 12.7271 84.7076 12.1368L82.7242 11.8803C82.6585 12.3884 82.5717 12.7177 82.4899 12.9106L84.3311 13.6917ZM84.7078 12.1357C84.7839 11.5421 84.8376 10.8144 84.8714 9.95997L82.8729 9.88094C82.8404 10.7026 82.79 11.367 82.724 11.8814L84.7078 12.1357ZM84.8714 9.96013L85.0631 5.13058L83.0647 5.05123L82.8729 9.88078L84.8714 9.96013ZM84.0639 6.09091H91.6776V4.09091H84.0639V6.09091ZM90.6776 5.09091V16H92.6776V5.09091H90.6776ZM91.6776 15H89.5966V17H91.6776V15ZM90.5966 16V6.9233H88.5966V16H90.5966ZM89.5966 5.9233H86.0312V7.9233H89.5966V5.9233ZM85.0323 6.87737L84.8619 10.5848L86.8597 10.6766L87.0302 6.96922L85.0323 6.87737ZM84.8619 10.5834C84.8211 11.4448 84.7336 12.1753 84.6054 12.7819L86.5622 13.1953C86.7181 12.4573 86.8153 11.6158 86.8597 10.678L84.8619 10.5834ZM84.604 12.7885C84.4823 13.3846 84.3131 13.8342 84.1186 14.1641L85.8416 15.1797C86.1774 14.6099 86.4107 13.9374 86.5636 13.1887L84.604 12.7885ZM84.121 14.1601C83.9398 14.4643 83.727 14.6627 83.4863 14.7912L84.4285 16.5554C85.0211 16.2389 85.4902 15.7696 85.8392 15.1837L84.121 14.1601ZM83.4941 14.7871C83.2538 14.9127 82.9151 15 82.4375 15V17C83.1531 17 83.8277 16.8695 84.4206 16.5595L83.4941 14.7871ZM82.4375 15H81.7557V17H82.4375V15ZM95.8093 15.858L95.3868 16.7644L95.3932 16.7673L95.8093 15.858ZM94.4812 14.7287L93.6442 15.276L93.6479 15.2815L94.4812 14.7287ZM94.3533 11.3977L95.2126 11.9092L94.3533 11.3977ZM95.3121 10.4531L95.8116 11.3195L95.3121 10.4531ZM98.1815 9.65767L98.0663 8.66432L98.063 8.66471L98.1815 9.65767ZM99.7724 9.47301L99.8879 10.4664L99.8992 10.4649L99.7724 9.47301ZM100.66 9.22443L101.184 10.0761L100.66 9.22443ZM100.412 7.17898L99.7094 7.89096L99.7142 7.8957L100.412 7.17898ZM97.1729 7.14347L97.7818 7.93678L97.7831 7.93575L97.1729 7.14347ZM96.3278 8.1875L96.1057 9.16253L96.9335 9.35108L97.2539 8.5648L96.3278 8.1875ZM94.332 7.73295L93.3903 7.39662L93.0113 8.45776L94.11 8.70798L94.332 7.73295ZM95.369 6.12784L96.0362 6.87268L96.0367 6.87228L95.369 6.12784ZM96.9528 5.23295L97.2485 6.18826L97.2553 6.18608L96.9528 5.23295ZM100.22 5.10511L100.011 6.08312L100.022 6.08533L100.22 5.10511ZM101.598 5.65909L101.063 6.50392L101.067 6.50656L101.598 5.65909ZM102.656 6.81676L101.779 7.29678L101.781 7.30028L102.656 6.81676ZM103.068 16V17H104.068V16H103.068ZM100.994 16H99.994V17H100.994V16ZM100.994 14.5085H101.994V13.5085H100.994V14.5085ZM100.909 14.5085V13.5085H100.291L100.014 14.0613L100.909 14.5085ZM100.291 15.3182L99.5962 14.5988L100.291 15.3182ZM99.2326 15.9787L98.8559 15.0523L99.2326 15.9787ZM99.6516 14.1889L99.1693 13.3129L99.1651 13.3152L99.6516 14.1889ZM100.61 13.2798L99.7482 12.7733L99.7463 12.7766L100.61 13.2798ZM100.944 10.6591H101.944V8.24488L100.237 9.95198L100.944 10.6591ZM100.504 10.8722L100.781 11.8329L100.788 11.8309L100.795 11.8288L100.504 10.8722ZM99.7724 11.0355L99.9257 12.0237L99.934 12.0224L99.9423 12.021L99.7724 11.0355ZM98.9698 11.1562L99.0961 12.1482L99.1049 12.1471L99.1138 12.1458L98.9698 11.1562ZM98.3164 11.2415L98.4418 12.2336L98.4503 12.2325L98.3164 11.2415ZM97.1871 11.5043L96.8475 10.5637L96.8433 10.5652L97.1871 11.5043ZM96.3775 12.0369L95.6259 11.3773L95.6249 11.3784L96.3775 12.0369ZM96.6616 14.1392L96.0908 14.9603L96.0976 14.965L96.6616 14.1392ZM97.6843 15.2415C97.1186 15.2415 96.6381 15.1375 96.2254 14.9486L95.3932 16.7673C96.0979 17.0898 96.8674 17.2415 97.6843 17.2415V15.2415ZM96.2318 14.9516C95.8324 14.7654 95.5349 14.5081 95.3145 14.1758L93.6479 15.2815C94.0809 15.9342 94.6688 16.4297 95.3868 16.7643L96.2318 14.9516ZM95.3181 14.1814C95.1235 13.8838 94.9982 13.4804 94.9982 12.9176H92.9982C92.9982 13.7848 93.1949 14.5888 93.6442 15.2759L95.3181 14.1814ZM94.9982 12.9176C94.9982 12.4245 95.0936 12.1092 95.2126 11.9092L93.494 10.8862C93.1396 11.4817 92.9982 12.1797 92.9982 12.9176H94.9982ZM95.2126 11.9092C95.3615 11.6592 95.5569 11.4663 95.8116 11.3195L94.8127 9.58677C94.2625 9.90398 93.8187 10.3408 93.494 10.8862L95.2126 11.9092ZM95.8116 11.3195C96.1225 11.1403 96.4807 10.9986 96.8932 10.9004L96.43 8.95475C95.8482 9.09327 95.3067 9.30197 94.8127 9.58677L95.8116 11.3195ZM96.8932 10.9004C97.3524 10.791 97.8212 10.7077 98.2999 10.6506L98.063 8.66471C97.5095 8.73073 96.9651 8.82735 96.43 8.95475L96.8932 10.9004ZM98.2966 10.651C98.9501 10.5753 99.4805 10.5137 99.8879 10.4663L99.6569 8.4797C99.2498 8.52703 98.7197 8.58857 98.0663 8.66432L98.2966 10.651ZM99.8992 10.4649C100.344 10.4081 100.813 10.3043 101.184 10.0761L100.136 8.37277C100.148 8.36523 100.123 8.38295 100.03 8.40884C99.9415 8.43365 99.8158 8.45931 99.6455 8.48109L99.8992 10.4649ZM101.184 10.0761C101.722 9.74522 101.937 9.2004 101.937 8.67045H99.9371C99.9371 8.67932 99.9356 8.62918 99.9735 8.5535C100.015 8.47058 100.078 8.40849 100.136 8.37277L101.184 10.0761ZM101.937 8.67045V8.62074H99.9371V8.67045H101.937ZM101.937 8.62074C101.937 7.8071 101.702 7.03887 101.109 6.46225L99.7142 7.8957C99.8223 8.00091 99.9371 8.19384 99.9371 8.62074H101.937ZM101.114 6.46701C100.515 5.87659 99.7028 5.66761 98.8633 5.66761V7.66761C99.3968 7.66761 99.6167 7.79955 99.7094 7.89094L101.114 6.46701ZM98.8633 5.66761C98.0092 5.66761 97.2048 5.85677 96.5628 6.35118L97.7831 7.93575C97.965 7.7957 98.2875 7.66761 98.8633 7.66761V5.66761ZM96.5641 6.35016C96.0496 6.74505 95.6392 7.22723 95.4017 7.8102L97.2539 8.5648C97.3289 8.38072 97.4819 8.16688 97.7818 7.93678L96.5641 6.35016ZM96.5498 7.21247L94.5541 6.75792L94.11 8.70798L96.1057 9.16253L96.5498 7.21247ZM95.2738 8.06929C95.4631 7.53906 95.7236 7.15269 96.0362 6.87268L94.7017 5.38301C94.1052 5.91738 93.6744 6.60109 93.3903 7.39662L95.2738 8.06929ZM96.0367 6.87228C96.3872 6.55784 96.7879 6.3308 97.2485 6.18824L96.6571 4.27767C95.9245 4.50443 95.2692 4.87398 94.7013 5.3834L96.0367 6.87228ZM97.2553 6.18608C97.7491 6.02932 98.2741 5.94886 98.8349 5.94886V3.94886C98.0794 3.94886 97.3496 4.0578 96.6502 4.27983L97.2553 6.18608ZM98.8349 5.94886C99.191 5.94886 99.5822 5.99149 100.011 6.08305L100.429 4.12717C99.882 4.01041 99.3499 3.94886 98.8349 3.94886V5.94886ZM100.022 6.08533C100.394 6.16049 100.739 6.29909 101.063 6.50391L102.133 4.81427C101.604 4.47932 101.03 4.2486 100.418 4.1249L100.022 6.08533ZM101.067 6.50656C101.335 6.6747 101.576 6.92585 101.779 7.29677L103.533 6.33675C103.187 5.70389 102.722 5.18325 102.128 4.81162L101.067 6.50656ZM101.781 7.30028C101.947 7.60192 102.068 8.06523 102.068 8.75568H104.068C104.068 7.85522 103.914 7.02592 103.531 6.33324L101.781 7.30028ZM102.068 8.75568V16H104.068V8.75568H102.068ZM103.068 15H100.994V17H103.068V15ZM101.994 16V14.5085H99.994V16H101.994ZM100.994 13.5085H100.909V15.5085H100.994V13.5085ZM100.014 14.0613C99.9383 14.2133 99.8084 14.394 99.5962 14.5988L100.985 16.0376C101.323 15.7121 101.605 15.353 101.803 14.9557L100.014 14.0613ZM99.5962 14.5988C99.4311 14.7582 99.1937 14.915 98.8559 15.0523L99.6093 16.905C100.133 16.692 100.601 16.4084 100.985 16.0376L99.5962 14.5988ZM98.8559 15.0523C98.5741 15.1669 98.1926 15.2415 97.6843 15.2415V17.2415C98.3787 17.2415 99.0294 17.1408 99.6093 16.905L98.8559 15.0523ZM98.146 15.5369C98.8644 15.5369 99.542 15.3945 100.138 15.0626L99.1651 13.3152C98.9279 13.4473 98.6018 13.5369 98.146 13.5369V15.5369ZM100.134 15.0649C100.696 14.7555 101.156 14.3306 101.475 13.783L99.7463 12.7766C99.6295 12.9771 99.4502 13.1583 99.1693 13.3129L100.134 15.0649ZM101.473 13.7864C101.784 13.2572 101.944 12.678 101.944 12.0653H99.9442C99.9442 12.3145 99.8824 12.5449 99.7482 12.7733L101.473 13.7864ZM101.944 12.0653V10.6591H99.9442V12.0653H101.944ZM100.237 9.95198C100.257 9.93216 100.275 9.91681 100.289 9.90544C100.303 9.89406 100.315 9.88578 100.324 9.88025C100.34 9.86963 100.347 9.86642 100.342 9.86902C100.337 9.87141 100.324 9.87722 100.301 9.88573C100.279 9.89414 100.25 9.90418 100.213 9.91548L100.795 11.8288C101.031 11.7571 101.388 11.6295 101.651 11.3662L100.237 9.95198ZM100.226 9.91144C100.056 9.96058 99.8495 10.0075 99.6025 10.0501L99.9423 12.021C100.244 11.9689 100.525 11.9068 100.781 11.8329L100.226 9.91144ZM99.619 10.0473C99.3474 10.0895 99.083 10.1293 98.8259 10.1667L99.1138 12.1458C99.3775 12.1075 99.6481 12.0668 99.9257 12.0237L99.619 10.0473ZM98.8436 10.1643C98.5817 10.1976 98.3611 10.2263 98.1825 10.2505L98.4503 12.2325C98.6221 12.2093 98.8371 12.1812 99.0961 12.1482L98.8436 10.1643ZM98.191 10.2494C97.7163 10.3094 97.2669 10.4123 96.8475 10.5637L97.5268 12.4448C97.7892 12.35 98.0927 12.2777 98.4418 12.2336L98.191 10.2494ZM96.8433 10.5652C96.3752 10.7366 95.9563 11.0007 95.6259 11.3773L97.1291 12.6965C97.2058 12.6091 97.3267 12.5181 97.531 12.4433L96.8433 10.5652ZM95.6249 11.3784C95.2291 11.8308 95.0792 12.3887 95.0792 12.946H97.0792C97.0792 12.7457 97.1282 12.6976 97.1301 12.6954L95.6249 11.3784ZM95.0792 12.946C95.0792 13.7565 95.4005 14.4804 96.0908 14.9603L97.2323 13.3181C97.1462 13.2582 97.0792 13.1867 97.0792 12.946H95.0792ZM96.0976 14.965C96.6929 15.3716 97.3993 15.5369 98.146 15.5369V13.5369C97.6899 13.5369 97.4067 13.4371 97.2255 13.3134L96.0976 14.965ZM113.29 9.62926H114.29V8.62926H113.29V9.62926ZM113.29 11.4688V12.4688H114.29V11.4688H113.29ZM107.381 11.4688H106.381V12.4688H107.381V11.4688ZM107.381 9.62926V8.62926H106.381V9.62926H107.381ZM107.977 5.09091H108.977V4.09091H107.977V5.09091ZM107.977 16V17H108.977V16H107.977ZM105.896 16H104.896V17H105.896V16ZM105.896 5.09091V4.09091H104.896V5.09091H105.896ZM114.774 5.09091H115.774V4.09091H114.774V5.09091ZM114.774 16V17H115.774V16H114.774ZM112.7 16H111.7V17H112.7V16ZM112.7 5.09091V4.09091H111.7V5.09091H112.7ZM112.29 9.62926V11.4688H114.29V9.62926H112.29ZM113.29 10.4688H107.381V12.4688H113.29V10.4688ZM108.381 11.4688V9.62926H106.381V11.4688H108.381ZM107.381 10.6293H113.29V8.62926H107.381V10.6293ZM106.977 5.09091V16H108.977V5.09091H106.977ZM107.977 15H105.896V17H107.977V15ZM106.896 16V5.09091H104.896V16H106.896ZM105.896 6.09091H107.977V4.09091H105.896V6.09091ZM113.774 5.09091V16H115.774V5.09091H113.774ZM114.774 15H112.7V17H114.774V15ZM113.7 16V5.09091H111.7V16H113.7ZM112.7 6.09091H114.774V4.09091H112.7V6.09091ZM119.54 15.5312L119.024 16.3883L119.031 16.392L119.54 15.5312ZM117.75 13.5781L116.854 14.0213L116.857 14.0274L117.75 13.5781ZM117.75 7.66193L116.854 7.2187L116.852 7.22272L117.75 7.66193ZM119.511 5.66619L118.978 4.82057L118.975 4.82209L119.511 5.66619ZM123.957 5.25426L124.29 4.31113L123.957 5.25426ZM125.513 6.21307L124.825 6.93863V6.93863L125.513 6.21307ZM126.599 7.91051L125.665 8.26651L125.666 8.26863L126.599 7.91051ZM126.997 11.1847V12.1847H127.997V11.1847H126.997ZM118.325 11.1847H117.325V12.1847H118.325V11.1847ZM118.325 9.59375V8.59375H117.325V9.59375H118.325ZM124.916 9.59375V10.5938H125.916V9.59375H124.916ZM124.575 8.10938L123.689 8.57195L123.691 8.57592L124.575 8.10938ZM123.616 7.07955L123.092 7.93087L123.096 7.93355L123.616 7.07955ZM120.619 7.14347L121.168 7.97964L121.17 7.97824L120.619 7.14347ZM119.597 8.27983L118.708 7.82187L118.706 7.82536L119.597 8.27983ZM119.625 12.8963L118.731 13.3435L118.734 13.3501L119.625 12.8963ZM120.712 14.0682L120.209 14.9326L120.216 14.9364L120.712 14.0682ZM123.439 14.2955L123.763 15.2415L123.775 15.2372L123.439 14.2955ZM124.298 13.7699L123.605 13.0488V13.0488L124.298 13.7699ZM124.852 12.9105L125.03 11.9264L124.209 11.7784L123.916 12.5594L124.852 12.9105ZM126.862 13.2727L127.827 13.5352L128.114 12.4821L127.04 12.2886L126.862 13.2727ZM125.996 14.8281L125.266 14.1447L125.265 14.145L125.996 14.8281ZM124.44 15.858L124.803 16.7898L124.807 16.7884L124.44 15.858ZM122.317 15.2202C121.387 15.2202 120.644 15.0226 120.049 14.6705L119.031 16.392C119.989 16.9585 121.097 17.2202 122.317 17.2202V15.2202ZM120.055 14.6742C119.452 14.3118 118.984 13.8054 118.643 13.1289L116.857 14.0274C117.359 15.027 118.084 15.8226 119.025 16.3883L120.055 14.6742ZM118.646 13.1349C118.31 12.4552 118.125 11.6253 118.125 10.6165H116.125C116.125 11.8709 116.356 13.0154 116.854 14.0213L118.646 13.1349ZM118.125 10.6165C118.125 9.62437 118.309 8.79437 118.648 8.10114L116.852 7.22272C116.357 8.23404 116.125 9.37374 116.125 10.6165H118.125ZM118.646 8.10516C118.992 7.40568 119.459 6.88384 120.048 6.51029L118.975 4.82209C118.058 5.40499 117.351 6.21363 116.854 7.21871L118.646 8.10516ZM120.045 6.51181C120.623 6.14721 121.318 5.94886 122.168 5.94886V3.94886C120.991 3.94886 119.915 4.22873 118.978 4.82058L120.045 6.51181ZM122.168 5.94886C122.67 5.94886 123.155 6.03162 123.625 6.19739L124.29 4.31113C123.605 4.0697 122.896 3.94886 122.168 3.94886V5.94886ZM123.625 6.19739C124.066 6.35269 124.464 6.59642 124.825 6.93863L126.201 5.48751C125.643 4.95851 125.004 4.56302 124.29 4.31113L123.625 6.19739ZM124.825 6.93863C125.158 7.25438 125.444 7.68601 125.665 8.26651L127.534 7.55452C127.225 6.74297 126.787 6.04297 126.201 5.48751L124.825 6.93863ZM125.666 8.26863C125.875 8.81428 125.997 9.5259 125.997 10.4318H127.997C127.997 9.35857 127.854 8.38932 127.533 7.55239L125.666 8.26863ZM125.997 10.4318V11.1847H127.997V10.4318H125.997ZM126.997 10.1847H118.325V12.1847H126.997V10.1847ZM119.325 11.1847V9.59375H117.325V11.1847H119.325ZM118.325 10.5938H124.916V8.59375H118.325V10.5938ZM125.916 9.59375C125.916 8.89651 125.773 8.23739 125.46 7.64283L123.691 8.57592C123.832 8.8431 123.916 9.17357 123.916 9.59375H125.916ZM125.462 7.64681C125.152 7.05297 124.707 6.57303 124.137 6.22554L123.096 7.93355C123.35 8.08796 123.544 8.29456 123.689 8.57194L125.462 7.64681ZM124.141 6.22823C123.554 5.86634 122.888 5.70312 122.182 5.70312V7.70312C122.574 7.70312 122.865 7.79085 123.092 7.93086L124.141 6.22823ZM122.182 5.70312C121.414 5.70312 120.696 5.89481 120.069 6.30869L121.17 7.97824C121.433 7.805 121.757 7.70312 122.182 7.70312V5.70312ZM120.071 6.30729C119.486 6.69084 119.028 7.2 118.708 7.82187L120.486 8.73779C120.648 8.42216 120.872 8.17374 121.168 7.97964L120.071 6.30729ZM118.706 7.82536C118.394 8.43654 118.241 9.09749 118.241 9.79261H120.241C120.241 9.39872 120.326 9.05115 120.487 8.7343L118.706 7.82536ZM118.241 9.79261V11.0355H120.241V9.79261H118.241ZM118.241 11.0355C118.241 11.8784 118.389 12.6604 118.731 13.3435L120.519 12.4491C120.35 12.1095 120.241 11.6509 120.241 11.0355H118.241ZM118.734 13.3501C119.075 14.0205 119.567 14.5593 120.209 14.9326L121.214 13.2038C120.928 13.0373 120.696 12.7949 120.516 12.4425L118.734 13.3501ZM120.216 14.9364C120.853 15.3009 121.572 15.4659 122.338 15.4659V13.4659C121.864 13.4659 121.498 13.3657 121.208 13.1999L120.216 14.9364ZM122.338 15.4659C122.835 15.4659 123.313 15.3957 123.763 15.2414L123.115 13.3495C122.902 13.4225 122.646 13.4659 122.338 13.4659V15.4659ZM123.775 15.2372C124.233 15.0738 124.643 14.8259 124.991 14.491L123.605 13.0488C123.471 13.1779 123.308 13.2804 123.103 13.3537L123.775 15.2372ZM124.991 14.491C125.35 14.1466 125.613 13.7301 125.789 13.2616L123.916 12.5594C123.836 12.7727 123.73 12.9292 123.605 13.0488L124.991 14.491ZM124.675 13.8947L126.685 14.2569L127.04 12.2886L125.03 11.9264L124.675 13.8947ZM125.897 13.0103C125.779 13.4457 125.57 13.8194 125.266 14.1447L126.726 15.5115C127.255 14.9467 127.624 14.2834 127.827 13.5352L125.897 13.0103ZM125.265 14.145C124.966 14.4651 124.577 14.7295 124.074 14.9275L124.807 16.7884C125.554 16.494 126.202 16.0718 126.726 15.5113L125.265 14.145ZM124.078 14.9261C123.593 15.1147 123.012 15.2202 122.317 15.2202V17.2202C123.213 17.2202 124.047 17.0842 124.803 16.7898L124.078 14.9261ZM129.353 20.0909H128.353V21.0909H129.353V20.0909ZM129.353 5.09091V4.09091H128.353V5.09091H129.353ZM131.427 5.09091H132.427V4.09091H131.427V5.09091ZM131.427 6.85938H130.427V7.85938H131.427V6.85938ZM131.605 6.85938V7.85938H132.2L132.484 7.33566L131.605 6.85938ZM132.137 6.07102L132.927 6.68496L132.137 6.07102ZM133.103 5.28977L133.579 6.16963L133.586 6.16535L133.103 5.28977ZM137.095 5.61648L136.553 6.45728V6.45728L137.095 5.61648ZM138.721 7.54119L137.816 7.96576L137.818 7.96994L138.721 7.54119ZM138.728 13.5994L139.634 14.024L139.635 14.022L138.728 13.5994ZM137.109 15.5384L137.657 16.3748L137.661 16.3722L137.109 15.5384ZM133.132 15.8793L132.661 16.7613L132.665 16.7635L133.132 15.8793ZM132.152 15.098L132.935 14.4764V14.4764L132.152 15.098ZM131.605 14.3026L132.481 13.82L132.195 13.3026H131.605V14.3026ZM131.477 14.3026V13.3026H130.477V14.3026H131.477ZM131.477 20.0909V21.0909H132.477V20.0909H131.477ZM131.768 12.5625L130.835 12.922L131.768 12.5625ZM132.734 13.919L132.121 14.7094L132.127 14.7136L132.734 13.919ZM135.873 13.8977L136.493 14.6829L136.498 14.6786L135.873 13.8977ZM136.839 12.5128L135.905 12.1558L135.902 12.1625L136.839 12.5128ZM136.846 8.60653L135.909 8.95512L135.911 8.96189L136.846 8.60653ZM135.88 7.25L135.266 8.03936L135.271 8.04262L135.88 7.25ZM132.72 7.22869L132.123 6.42655L132.118 6.42977L132.72 7.22869ZM131.761 8.55682L132.695 8.91475L131.761 8.55682ZM130.353 20.0909V5.09091H128.353V20.0909H130.353ZM129.353 6.09091H131.427V4.09091H129.353V6.09091ZM130.427 5.09091V6.85938H132.427V5.09091H130.427ZM131.427 7.85938H131.605V5.85938H131.427V7.85938ZM132.484 7.33566C132.572 7.17316 132.715 6.9578 132.927 6.68496L131.348 5.45708C131.096 5.78084 130.884 6.09104 130.725 6.38309L132.484 7.33566ZM132.927 6.68496C133.056 6.51894 133.26 6.34153 133.579 6.16959L132.628 4.40995C132.122 4.68309 131.683 5.02651 131.348 5.45708L132.927 6.68496ZM133.586 6.16535C133.8 6.04773 134.159 5.94886 134.737 5.94886V3.94886C133.96 3.94886 133.231 4.07727 132.62 4.41419L133.586 6.16535ZM134.737 5.94886C135.44 5.94886 136.035 6.12361 136.553 6.45728L137.636 4.77567C136.772 4.2192 135.795 3.94886 134.737 3.94886V5.94886ZM136.553 6.45728C137.067 6.78818 137.492 7.27587 137.816 7.96576L139.627 7.11663C139.164 6.13037 138.505 5.33493 137.636 4.77567L136.553 6.45728ZM137.818 7.96994C138.137 8.64283 138.318 9.49719 138.318 10.5668H140.318C140.318 9.27838 140.101 8.11569 139.625 7.11245L137.818 7.96994ZM138.318 10.5668C138.318 11.6376 138.139 12.4968 137.822 13.1768L139.635 14.022C140.104 13.0164 140.318 11.8539 140.318 10.5668H138.318ZM137.823 13.1749C137.498 13.8678 137.072 14.3636 136.557 14.7045L137.661 16.3722C138.519 15.8041 139.173 15.0072 139.634 14.024L137.823 13.1749ZM136.561 14.7019C136.049 15.0371 135.459 15.2131 134.758 15.2131V17.2131C135.819 17.2131 136.796 16.9392 137.657 16.3748L136.561 14.7019ZM134.758 15.2131C134.198 15.2131 133.831 15.1177 133.599 14.995L132.665 16.7635C133.275 17.0859 133.993 17.2131 134.758 17.2131V15.2131ZM133.603 14.9972C133.279 14.8241 133.069 14.6449 132.935 14.4764L131.368 15.7197C131.708 16.1477 132.151 16.4893 132.661 16.7613L133.603 14.9972ZM132.935 14.4764C132.719 14.2046 132.573 13.9871 132.481 13.82L130.729 14.7852C130.893 15.0821 131.111 15.3949 131.368 15.7197L132.935 14.4764ZM131.605 13.3026H131.477V15.3026H131.605V13.3026ZM130.477 14.3026V20.0909H132.477V14.3026H130.477ZM131.477 19.0909H129.353V21.0909H131.477V19.0909ZM130.434 10.5455C130.434 11.4071 130.559 12.2059 130.835 12.922L132.701 12.203C132.532 11.7638 132.434 11.2179 132.434 10.5455H130.434ZM130.835 12.922C131.112 13.642 131.534 14.254 132.121 14.7093L133.347 13.1287C133.091 12.9307 132.869 12.6383 132.701 12.203L130.835 12.922ZM132.127 14.7136C132.748 15.1885 133.487 15.402 134.282 15.402V13.402C133.856 13.402 133.562 13.2935 133.341 13.1244L132.127 14.7136ZM134.282 15.402C135.102 15.402 135.861 15.1809 136.493 14.6828L135.254 13.1126C135.033 13.2869 134.732 13.402 134.282 13.402V15.402ZM136.498 14.6786C137.084 14.2099 137.504 13.5905 137.776 12.8631L135.902 12.1625C135.739 12.5999 135.515 12.9037 135.249 13.1169L136.498 14.6786ZM137.773 12.8697C138.046 12.1558 138.173 11.3763 138.173 10.5455H136.173C136.173 11.1729 136.077 11.705 135.905 12.1558L137.773 12.8697ZM138.173 10.5455C138.173 9.72507 138.049 8.9555 137.781 8.25118L135.911 8.96189C136.079 9.4034 136.173 9.92644 136.173 10.5455H138.173ZM137.784 8.25796C137.513 7.53173 137.088 6.91698 136.49 6.45738L135.271 8.04262C135.535 8.24589 135.753 8.5355 135.909 8.95511L137.784 8.25796ZM136.494 6.46065C135.862 5.96873 135.101 5.75284 134.282 5.75284V7.75284C134.742 7.75284 135.047 7.86839 135.266 8.03935L136.494 6.46065ZM134.282 5.75284C133.487 5.75284 132.748 5.96118 132.123 6.42656L133.317 8.03083C133.544 7.86174 133.846 7.75284 134.282 7.75284V5.75284ZM132.118 6.42977C131.525 6.87638 131.102 7.48291 130.827 8.19888L132.695 8.91475C132.856 8.49436 133.072 8.21547 133.321 8.02761L132.118 6.42977ZM130.827 8.19888C130.556 8.90549 130.434 9.6944 130.434 10.5455H132.434C132.434 9.88136 132.53 9.34451 132.695 8.91475L130.827 8.19888Z" fill="#478B2F" mask="url(#path-1-outside-1_1_215)"/>
</svg>
